<svg width="13" height="12" viewBox="0 0 13 12" fill="none" xmlns="http://www.w3.org/2000/svg">
<g clip-path="url(#clip0_2_45)">
<path d="M12.1594 2.94684C12.0215 2.40096 11.6148 1.97124 11.0983 1.8252C10.1626 1.56 6.40991 1.56 6.40991 1.56C6.40991 1.56 2.65739 1.56 1.72151 1.8252C1.20527 1.97112 0.798714 2.40096 0.660714 2.94684C0.410034 3.936 0.410034 6.00012 0.410034 6.00012C0.410034 6.00012 0.410034 8.06412 0.660714 9.05328C0.798714 9.59916 1.20527 10.0291 1.72151 10.175C2.65751 10.44 6.40991 10.44 6.40991 10.44C6.40991 10.44 10.1624 10.44 11.0983 10.175C11.6148 10.0291 12.0214 9.59916 12.1594 9.05328C12.41 8.06412 12.41 6.00012 12.41 6.00012C12.41 6.00012 12.41 3.936 12.1594 2.94684ZM5.20991 7.90296V4.09728L8.32763 6.00012L5.20991 7.90296Z" fill="white"/>
</g>
<defs>
<clipPath id="clip0_2_45">
<rect width="12" height="12" fill="white" transform="translate(0.410034)"/>
</clipPath>
</defs>
</svg>
