<svg width="13" height="12" viewBox="0 0 13 12" fill="none" xmlns="http://www.w3.org/2000/svg">
<g clip-path="url(#clip0_2_33)">
<path d="M11.2854 12H8.2827V7.872H10.3407V5.78067H8.2827V4.75667V4.554V4.54267C8.28937 4.324 8.46737 4.14867 8.68737 4.14867H8.73203H9.47403H10.554V2.05733H8.73203L8.72603 2.06933H8.6647C7.29737 2.06933 6.19003 3.17667 6.19003 4.54333V5.15067V5.78067H4.53737V7.872H6.19003V12H1.5347C0.913368 12 0.410034 11.4947 0.410034 10.8753V1.124C0.410034 0.502667 0.913368 0 1.5347 0H11.2854C11.906 0 12.41 0.502667 12.41 1.124V10.8753C12.41 11.4947 11.906 12 11.2854 12Z" fill="white"/>
</g>
<defs>
<clipPath id="clip0_2_33">
<rect width="12" height="12" fill="white" transform="translate(0.410034)"/>
</clipPath>
</defs>
</svg>
