<svg width="13" height="12" viewBox="0 0 13 12" fill="none" xmlns="http://www.w3.org/2000/svg">
<g clip-path="url(#clip0_2_37)">
<path d="M12.41 2.41131C11.96 2.62598 11.5094 2.69798 10.984 2.76931C11.5094 2.48265 11.8847 2.05198 12.0347 1.47798C11.5847 1.76465 11.0594 1.90865 10.46 2.05198C10.0094 1.62065 9.33537 1.33331 8.66003 1.33331C7.38537 1.33331 6.25937 2.41131 6.25937 3.70265C6.25937 3.91798 6.25937 4.06131 6.3347 4.20531C4.3107 4.13331 2.43537 3.19998 1.23537 1.76398C1.01003 2.12331 0.935368 2.48265 0.935368 2.98531C0.935368 3.77465 1.38537 4.49265 2.0607 4.92331C1.68537 4.92331 1.3107 4.77931 0.935368 4.63598C0.935368 5.78465 1.76003 6.71731 2.88537 6.93331C2.66003 7.00465 2.43537 7.00465 2.21003 7.00465C2.06003 7.00465 1.91003 7.00465 1.76003 6.93331C2.06003 7.86598 2.96003 8.58398 4.0847 8.58398C3.25937 9.23065 2.21003 9.58931 1.01003 9.58931C0.784701 9.58931 0.634701 9.58931 0.410034 9.58931C1.53537 10.236 2.8107 10.6666 4.16003 10.6666C8.66003 10.6666 11.1347 7.07665 11.1347 3.98998C11.1347 3.91798 11.1347 3.77465 11.1347 3.70265C11.66 3.34398 12.1094 2.91398 12.41 2.41131Z" fill="white"/>
</g>
<defs>
<clipPath id="clip0_2_37">
<rect width="12" height="12" fill="white" transform="translate(0.410034)"/>
</clipPath>
</defs>
</svg>
