<?xml version="1.0"?>
<svg width="43" height="61" xmlns="http://www.w3.org/2000/svg" xmlns:svg="http://www.w3.org/2000/svg">
 <defs>
  <clipPath id="clip0_2_6">
   <rect fill="red" height="60" id="svg_1" transform="translate(0.590027 0.799988)" width="42"/>
  </clipPath>
 </defs>
 <g class="layer">
  <title>Layer 1</title>
  <g clip-path="url(#clip0_2_6)" id="svg_2">
   <path d="m41.36,36.86c-0.21,-0.15 -0.37,-0.22 -0.37,-0.22l0,-0.08c-2.17,-1.59 -5.75,-2.76 -5.75,-2.76c2.32,0 3.88,-0.84 5.26,-2c-0.08,-0.08 1.05,-1 1.05,-1c0.22,-12.38 -6.72,-19.12 -10.51,-22c-3.22,6.35 -5.25,13 -5.25,13c-0.33,-6.64 0.37,-12.11 1.05,-16c-1.27,-0.68 -2.93,-1.05 -3.44,-2.31c-0.51,-1.25 -1.79,-2.69 -1.79,-2.69l-0.02,0.02l-0.02,-0.02c0,0 -1.28,1.44 -1.79,2.69c-0.51,1.26 -2.16,1.63 -3.44,2.31c0.69,3.89 1.38,9.36 1.05,16c0,0 -2.02,-6.65 -5.25,-13c-3.79,2.88 -10.72,9.62 -10.5,22c0,0 1.12,0.92 1.05,1c1.37,1.16 2.94,2 5.25,2c0,0 -3.58,1.17 -5.75,2.77l0,0.07c0,0 -0.16,0.08 -0.37,0.22c-0.72,0.59 -1.21,1.24 -1.23,1.9c-0.03,0.78 0.4,1.77 1.85,2.96c0,0 0.21,13.89 14.54,16.94c0,0 0.31,1.22 1.46,2.14l3.15,-3l3.15,3c1.15,-0.92 1.47,-2.15 1.47,-2.15c14.33,-3.04 14.53,-16.93 14.53,-16.93c1.46,-1.19 1.88,-2.18 1.85,-2.96c-0.02,-0.66 -0.51,-1.31 -1.23,-1.9zm-34.47,2.94c3.54,0.18 5.27,2.21 8.4,6c1.2,1.45 3.09,1.25 3.09,1.25l0.06,4.75c-9.98,0 -11.55,-12 -11.55,-12zm14.7,3.24l-4.45,-4.24l3.15,-3l-3.15,-3l3.15,-3l-3.15,-3l4.45,-4.24l4.46,4.24l-3.15,3l3.15,3l-3.15,3l3.15,3l-4.46,4.24zm3.15,8.76l0.06,-4.75c0,0 1.89,0.2 3.09,-1.25c3.13,-3.79 4.86,-5.82 8.41,-6c0,0 -1.58,12 -11.56,12zm-4.2,-12l2.1,0l0,-2l-2.1,0l0,2zm0,-6l2.1,0l0,-2l-2.1,0l0,2zm0,-6l2.1,0l0,-2l-2.1,0l0,2z" fill="#007f7f" id="svg_3"/>
  </g>
 </g>
</svg>