<?xml version="1.0" standalone="no"?>
<!DOCTYPE svg PUBLIC "-//W3C//DTD SVG 20010904//EN"
 "http://www.w3.org/TR/2001/REC-SVG-20010904/DTD/svg10.dtd">
<svg version="1.0" xmlns="http://www.w3.org/2000/svg"
 width="976.000000pt" height="976.000000pt" viewBox="0 0 976.000000 976.000000"
 preserveAspectRatio="xMidYMid meet">
<metadata>
Created by potrace 1.14, written by Peter Selinger 2001-2017
</metadata>
<g transform="translate(0.000000,976.000000) scale(0.100000,-0.100000)"
fill="#000000" stroke="none">
<path d="M4880 9623 c0 -4 -14 -22 -30 -40 -17 -18 -30 -34 -30 -37 0 -4 -8
-15 -17 -25 -33 -36 -43 -50 -43 -60 0 -5 -4 -11 -9 -13 -14 -5 -104 -154
-143 -238 -36 -76 -75 -124 -138 -171 -46 -34 -129 -79 -145 -79 -7 0 -18 -7
-25 -15 -7 -8 -18 -15 -25 -15 -8 0 -48 -16 -89 -35 -42 -19 -78 -34 -80 -32
-3 1 -16 -8 -29 -21 -21 -20 -24 -28 -17 -55 5 -18 11 -48 14 -67 3 -19 15
-96 26 -170 12 -74 23 -148 25 -165 7 -53 16 -119 20 -145 2 -14 6 -50 9 -80
3 -30 8 -64 10 -75 2 -11 7 -56 10 -100 4 -44 9 -91 11 -105 2 -14 6 -65 10
-115 3 -49 8 -115 11 -145 3 -30 7 -93 9 -140 2 -47 5 -85 5 -85 5 0 13 -372
13 -585 0 -339 -6 -521 -16 -511 -5 5 -9 15 -10 22 -2 8 -5 19 -9 24 -3 6 -9
26 -13 45 -4 19 -10 40 -14 45 -3 6 -6 12 -6 15 -1 3 -9 30 -20 60 -11 30 -20
57 -20 60 -1 3 -4 12 -7 20 -36 98 -46 129 -41 134 4 3 1 6 -5 6 -7 0 -11 3
-10 8 2 6 -18 67 -42 127 -4 11 -17 45 -28 75 -17 47 -63 170 -88 235 -4 11
-8 22 -9 25 -1 3 -7 17 -13 33 -7 15 -17 39 -24 55 -6 15 -12 29 -13 32 -23
67 -104 260 -132 313 -8 15 -12 27 -9 27 2 0 -9 27 -25 60 -16 33 -29 63 -29
66 0 3 -14 35 -31 72 -95 203 -117 248 -173 365 l-62 127 -34 -25 c-43 -30
-39 -27 -125 -99 -93 -78 -216 -189 -274 -247 -121 -122 -270 -286 -316 -347
-5 -7 -17 -21 -25 -31 -23 -26 -123 -160 -161 -216 -19 -27 -37 -52 -40 -55
-7 -6 -128 -201 -159 -255 -67 -118 -155 -296 -208 -420 -69 -163 -74 -177
-78 -190 -1 -5 -21 -65 -44 -133 -23 -67 -43 -134 -46 -148 -3 -14 -11 -44
-18 -67 -8 -23 -18 -58 -22 -77 -4 -19 -9 -39 -11 -45 -6 -21 -34 -151 -38
-175 -5 -28 -13 -72 -21 -112 -3 -15 -7 -41 -9 -58 -2 -17 -7 -49 -10 -70 -28
-211 -32 -256 -40 -541 l-6 -206 33 -25 c18 -14 69 -61 114 -104 78 -76 135
-125 157 -133 6 -2 20 -12 31 -23 11 -10 25 -18 32 -18 7 0 14 -3 16 -7 8 -20
233 -117 298 -129 14 -3 41 -9 60 -14 43 -11 117 -21 190 -25 30 -2 57 -4 60
-5 4 -1 -107 -46 -135 -54 -5 -2 -23 -9 -40 -15 -16 -7 -46 -19 -65 -26 -19
-7 -53 -21 -75 -31 -22 -10 -42 -18 -45 -19 -42 -13 -344 -165 -348 -176 -2
-5 -8 -9 -14 -9 -12 0 -152 -93 -223 -148 -206 -160 -258 -323 -160 -508 42
-79 53 -92 157 -196 l87 -86 5 -69 c3 -37 7 -79 10 -93 3 -14 7 -47 10 -75 22
-198 104 -509 196 -740 40 -101 143 -319 153 -323 4 -2 7 -8 7 -12 0 -13 119
-210 141 -234 11 -11 19 -23 19 -28 0 -4 6 -16 14 -25 8 -10 52 -65 98 -123
107 -135 287 -316 398 -400 18 -14 38 -30 44 -35 74 -72 484 -315 530 -315 9
0 16 -4 16 -8 0 -5 33 -21 73 -36 39 -16 86 -34 102 -41 65 -28 229 -79 384
-119 l124 -33 31 -70 c36 -80 120 -198 173 -242 l36 -30 37 37 c20 20 106 102
190 182 84 80 179 171 212 202 69 67 54 70 171 -42 43 -41 108 -104 145 -139
37 -35 108 -104 159 -153 l92 -89 54 55 c30 30 69 75 86 99 31 46 91 167 91
185 0 5 19 13 43 16 23 4 43 7 44 8 1 0 40 11 85 25 46 13 90 25 98 26 61 10
330 113 470 179 216 103 461 264 629 413 72 63 221 215 221 225 0 5 4 10 9 10
10 0 148 176 212 270 24 36 49 68 54 72 6 4 6 8 1 8 -5 0 -2 8 7 18 31 34 177
313 177 338 0 7 4 14 8 16 13 5 132 322 146 390 3 12 12 48 21 78 9 30 18 66
21 80 2 14 7 32 10 40 3 8 7 24 9 35 2 11 7 34 10 50 8 42 20 109 30 175 7 42
16 127 20 185 3 54 5 56 83 132 95 93 130 138 170 218 75 150 57 273 -61 401
-62 68 -222 192 -307 238 -14 8 -52 28 -85 46 -83 46 -175 90 -275 134 -47 21
-103 46 -125 56 -22 9 -58 23 -80 30 -22 7 -44 16 -50 20 -5 5 -39 17 -75 28
-36 12 -56 22 -45 22 11 1 42 3 70 5 27 2 68 7 90 10 22 4 51 8 65 10 14 2 40
8 58 14 18 5 33 9 35 9 3 -2 81 24 92 31 6 3 16 6 22 7 51 8 268 138 343 206
10 9 21 14 24 11 3 -4 6 -1 6 6 0 12 50 64 133 138 l47 42 -5 188 c-4 181 -7
222 -20 363 -9 95 -11 119 -20 180 -4 30 -9 64 -10 75 -2 11 -11 61 -20 110
-10 50 -19 99 -21 110 -10 56 -35 159 -54 230 -12 44 -23 85 -24 90 -1 6 -5
16 -9 23 -5 6 -6 12 -2 12 3 0 -1 14 -10 30 -9 17 -13 30 -10 30 3 0 -6 29
-20 65 -13 36 -22 65 -18 65 3 0 1 6 -4 13 -6 6 -16 30 -23 52 -7 22 -22 60
-33 85 -10 25 -26 59 -33 77 -8 17 -14 34 -14 37 0 24 -226 458 -242 464 -4 2
-8 8 -8 14 0 8 -146 235 -182 283 -51 67 -217 275 -239 299 -15 17 -42 47 -60
66 -118 132 -322 327 -446 428 -125 101 -155 124 -158 120 -4 -4 -139 -280
-140 -288 -1 -3 -20 -43 -42 -90 -22 -47 -57 -123 -78 -170 -20 -47 -45 -103
-55 -125 -9 -22 -28 -65 -40 -95 -12 -30 -31 -74 -41 -97 -11 -24 -19 -45 -19
-48 0 -3 -9 -27 -21 -53 -26 -57 -29 -65 -70 -172 -18 -47 -37 -91 -42 -97 -5
-7 -7 -13 -4 -13 4 0 -42 -128 -78 -215 -5 -11 -9 -22 -9 -25 -1 -5 -84 -245
-94 -270 -3 -8 -6 -17 -7 -20 -1 -3 -4 -12 -7 -20 -8 -21 -52 -156 -68 -208
-8 -24 -16 -45 -19 -47 -21 -12 -17 1041 4 1218 2 16 6 79 10 140 3 62 8 123
10 137 2 14 7 54 10 90 5 58 14 136 31 285 14 116 25 206 29 225 2 9 6 41 10
70 4 29 9 62 11 74 2 12 7 41 10 66 3 25 8 54 11 65 2 11 5 27 5 35 0 8 6 40
13 70 10 45 10 58 -1 68 -7 6 -16 12 -19 12 -3 0 -49 20 -102 45 -52 25 -98
45 -102 45 -6 0 -61 28 -140 71 -24 13 -67 47 -95 75 -46 47 -60 68 -95 144
-68 149 -291 451 -291 393z m98 -3552 c32 -31 120 -114 196 -186 364 -345 426
-405 426 -413 0 -4 -59 -64 -132 -132 -72 -69 -152 -145 -178 -170 -26 -25
-78 -75 -117 -112 l-70 -67 101 -95 c56 -52 135 -127 176 -167 41 -39 108
-103 148 -141 39 -38 72 -73 72 -77 0 -4 -54 -58 -120 -120 -67 -63 -178 -169
-248 -237 l-127 -124 71 -67 c40 -38 119 -113 177 -168 57 -55 139 -132 180
-171 l75 -72 -125 -118 c-69 -66 -155 -148 -192 -184 -38 -36 -135 -128 -216
-205 -81 -77 -154 -146 -161 -152 -7 -7 -16 -13 -21 -13 -4 0 -56 46 -114 103
-153 147 -388 371 -501 477 l-97 92 52 49 c29 26 55 49 60 49 4 0 7 7 7 15 0
8 3 15 8 15 8 0 83 70 247 228 55 53 108 102 118 108 19 11 -3 34 -356 368
l-137 129 29 26 c26 24 264 250 413 393 35 33 57 62 53 68 -4 6 -28 30 -53 53
-25 23 -83 78 -128 122 -46 44 -135 129 -198 188 l-115 109 52 49 c29 26 55
49 60 49 4 0 7 7 7 15 0 8 4 15 8 15 5 0 40 30 79 68 39 37 142 135 229 218
275 263 277 264 291 252 7 -6 39 -36 71 -67z m-2258 -2700 c157 -29 310 -95
459 -198 92 -65 318 -280 431 -412 30 -35 66 -77 80 -92 14 -15 34 -40 45 -55
11 -15 31 -40 45 -55 14 -15 36 -42 50 -60 46 -59 134 -146 183 -178 26 -18
47 -29 47 -25 0 3 10 0 23 -8 34 -22 135 -47 217 -54 41 -4 76 -8 78 -9 2 -2
5 -172 8 -379 l4 -375 -87 4 c-91 5 -158 12 -203 20 -67 13 -96 18 -112 19
-10 0 -18 3 -18 6 0 3 -9 6 -19 7 -29 2 -202 62 -228 79 -13 8 -23 12 -23 10
0 -6 -116 55 -173 91 -23 14 -44 27 -47 27 -3 0 -12 6 -20 13 -8 6 -51 41 -95
76 -94 76 -172 152 -235 228 -25 29 -47 56 -50 59 -5 5 -80 109 -128 177 -12
18 -22 35 -22 39 0 3 -8 18 -19 32 -30 44 -91 162 -83 162 4 0 2 4 -3 8 -13 8
-54 95 -97 202 -40 98 -108 300 -102 300 3 0 2 6 -3 13 -4 6 -8 17 -9 22 -1 6
-9 37 -18 70 -9 33 -19 71 -21 85 -3 14 -7 36 -11 50 -3 14 -8 41 -10 60 -3
19 -7 41 -10 48 -4 15 75 12 176 -7z m4525 7 c-2 -7 -7 -31 -10 -53 -3 -22
-15 -78 -26 -125 -11 -47 -22 -92 -24 -100 -13 -54 -69 -230 -98 -305 -56
-145 -145 -337 -159 -343 -5 -2 -8 -12 -8 -22 0 -10 -3 -20 -8 -22 -4 -1 -27
-37 -51 -78 -87 -149 -234 -331 -353 -437 -66 -59 -135 -115 -157 -127 -9 -5
-18 -12 -21 -16 -16 -21 -276 -160 -300 -160 -6 0 -18 -4 -28 -10 -32 -18
-185 -63 -249 -74 -125 -22 -166 -27 -260 -31 -82 -4 -120 3 -95 19 5 3 6 28
2 56 -4 27 -4 50 -1 50 3 0 7 140 7 310 1 171 3 312 5 314 2 2 36 7 74 10 127
11 177 25 265 73 75 41 130 96 286 284 239 287 451 502 584 589 12 8 33 23 45
33 13 9 27 17 33 17 5 0 20 8 33 18 39 30 216 99 274 108 11 2 44 9 74 16 80
19 172 22 166 6z"/>
<path d="M4742 5629 c-15 -6 -17 -24 -15 -155 0 -82 2 -152 2 -156 2 -13 331
-8 332 5 0 7 1 78 2 160 2 141 1 147 -18 148 -106 4 -290 3 -303 -2z"/>
<path d="M4800 4670 l-75 -5 1 -135 c1 -74 2 -145 3 -157 1 -23 1 -23 167 -20
l166 2 2 158 1 157 -35 1 c-19 0 -62 1 -95 2 -33 1 -94 0 -135 -3z"/>
<path d="M4760 3710 l-35 -5 0 -157 0 -156 155 0 c85 0 162 2 170 4 13 3 15
29 15 159 0 96 -4 155 -10 155 -88 4 -268 4 -295 0z"/>
</g>
</svg>
