<?xml version="1.0" standalone="no"?>
<!DOCTYPE svg PUBLIC "-//W3C//DTD SVG 20010904//EN"
 "http://www.w3.org/TR/2001/REC-SVG-20010904/DTD/svg10.dtd">
<svg version="1.0" xmlns="http://www.w3.org/2000/svg"
 width="976.000000pt" height="976.000000pt" viewBox="0 0 976.000000 976.000000"
 preserveAspectRatio="xMidYMid meet">
<metadata>
Created by potrace 1.14, written by Peter Selinger 2001-2017
</metadata>
<g transform="translate(0.000000,976.000000) scale(0.100000,-0.100000)"
fill="#000000" stroke="none">
<path d="M4853 9586 c-30 -38 -52 -66 -83 -103 -5 -7 -10 -16 -10 -22 0 -5 -4
-11 -9 -13 -15 -5 -89 -128 -136 -223 -44 -91 -130 -195 -162 -195 -7 0 -13
-4 -13 -9 0 -5 -10 -13 -22 -17 -13 -3 -30 -12 -38 -19 -8 -8 -27 -16 -42 -20
-15 -4 -32 -13 -39 -21 -6 -8 -17 -14 -25 -14 -7 0 -50 -17 -96 -39 -46 -21
-91 -41 -102 -45 -16 -6 -18 -13 -12 -65 4 -33 9 -70 12 -83 10 -45 47 -283
50 -323 1 -22 3 -40 4 -40 3 0 9 -39 16 -100 9 -84 12 -105 17 -150 3 -22 8
-65 11 -95 3 -30 8 -77 11 -105 10 -98 16 -177 30 -385 23 -364 25 -1224 2
-1201 -5 5 -9 15 -10 22 -2 8 -5 19 -9 24 -3 6 -9 26 -13 45 -4 19 -10 40 -14
45 -3 6 -6 12 -6 15 -1 3 -9 30 -20 60 -11 30 -20 57 -20 60 -1 3 -4 12 -7 20
-36 98 -46 129 -41 134 4 3 1 6 -5 6 -7 0 -11 3 -10 8 2 6 -20 74 -42 127 -5
11 -18 47 -30 80 -11 33 -24 69 -29 80 -5 11 -19 47 -31 80 -26 71 -39 104
-51 127 -5 10 -9 22 -9 28 0 6 -9 29 -19 53 -10 23 -40 94 -66 157 -26 63 -55
133 -65 155 -10 22 -30 69 -45 105 -25 61 -40 93 -111 245 -15 33 -27 63 -26
68 1 4 -2 7 -8 7 -5 0 -10 6 -10 13 -1 6 -31 74 -68 150 l-67 138 -35 -25
c-43 -31 -39 -28 -125 -100 -213 -179 -420 -386 -565 -564 -19 -24 -42 -51
-50 -61 -23 -26 -122 -160 -161 -216 -19 -27 -37 -52 -40 -55 -9 -8 -137 -215
-176 -284 -100 -179 -287 -601 -308 -696 -2 -8 -12 -42 -23 -75 -21 -64 -44
-144 -48 -160 -1 -5 -7 -30 -14 -55 -7 -25 -14 -53 -16 -63 -2 -10 -5 -26 -8
-35 -3 -9 -7 -28 -10 -42 -5 -25 -21 -104 -31 -150 -3 -14 -7 -43 -9 -65 -2
-22 -7 -51 -10 -65 -6 -29 -14 -80 -22 -152 -3 -29 -8 -69 -10 -88 -8 -63 -13
-172 -19 -371 l-5 -197 33 -24 c17 -14 68 -61 113 -104 86 -84 135 -124 165
-136 11 -4 19 -11 19 -16 0 -4 15 -15 33 -24 17 -8 66 -33 107 -53 76 -39 165
-73 210 -81 14 -3 41 -9 60 -14 44 -12 120 -22 188 -25 29 -1 54 -4 57 -7 4
-3 -81 -37 -130 -52 -5 -2 -23 -9 -40 -15 -16 -7 -46 -19 -65 -26 -19 -7 -53
-21 -75 -31 -22 -10 -42 -18 -45 -19 -42 -13 -344 -165 -348 -176 -2 -5 -8 -9
-14 -9 -12 0 -152 -93 -223 -148 -279 -217 -278 -436 1 -708 l83 -81 5 -69 c3
-38 7 -80 10 -94 3 -14 7 -47 10 -75 21 -186 120 -568 191 -730 7 -16 27 -64
45 -105 42 -97 114 -238 162 -318 21 -34 38 -66 38 -71 0 -5 3 -11 8 -13 4 -2
36 -46 71 -98 36 -52 67 -97 70 -100 3 -3 33 -38 66 -79 90 -112 276 -296 375
-371 18 -14 38 -30 44 -35 74 -72 484 -315 530 -315 9 0 16 -4 16 -8 0 -5 33
-21 73 -36 39 -16 86 -34 102 -41 28 -13 201 -72 235 -81 8 -2 73 -19 144 -37
l129 -34 31 -70 c36 -81 120 -198 173 -242 l36 -30 37 37 c32 33 209 202 399
381 71 68 63 68 137 -4 22 -22 114 -110 203 -195 90 -85 178 -170 197 -188
l33 -33 65 66 c36 37 68 75 71 86 4 10 11 19 16 19 5 0 9 6 9 14 0 7 7 19 15
26 8 7 12 16 9 21 -3 5 -1 9 4 9 5 0 16 21 24 47 8 26 21 50 29 54 22 12 52
21 75 24 11 2 40 9 65 15 24 7 45 12 46 11 2 0 21 6 43 14 22 8 41 14 43 13 6
-3 155 49 272 95 135 53 397 182 403 198 2 5 8 9 14 9 5 0 29 13 53 30 24 16
46 30 50 30 3 0 11 5 18 10 7 6 55 42 107 80 160 118 348 295 446 420 26 33
52 60 57 60 6 0 8 3 4 6 -3 3 3 16 14 28 29 31 161 230 204 306 140 254 245
516 311 773 10 41 15 64 20 87 3 14 7 33 10 42 6 21 13 54 19 93 2 17 7 41 9
55 5 25 9 52 21 140 3 25 7 73 9 107 l4 62 84 83 c96 95 125 131 166 214 80
159 56 282 -82 419 -74 73 -174 155 -191 158 -5 0 -18 8 -28 17 -9 9 -30 23
-45 31 -15 7 -38 21 -52 30 -45 30 -370 189 -386 189 -3 0 -29 11 -57 24 -29
13 -70 29 -92 36 -22 7 -44 15 -50 19 -5 3 -39 16 -75 28 -36 12 -56 22 -45
23 11 1 38 3 60 4 295 21 567 140 761 331 39 39 92 89 118 111 l47 42 -6 198
c-3 110 -7 224 -10 254 -14 181 -34 340 -55 440 -5 25 -12 62 -15 83 -6 45
-32 159 -45 203 -6 17 -10 39 -10 51 0 11 -3 23 -7 27 -4 3 -8 12 -9 19 -8 54
-83 287 -98 306 -6 8 -9 15 -7 15 6 1 -19 78 -29 91 -5 6 -9 15 -9 20 -1 36
-231 515 -261 545 -3 3 -14 21 -24 40 -29 52 -112 181 -135 210 -12 14 -21 28
-21 32 0 4 -6 16 -14 25 -8 10 -37 47 -63 83 -55 74 -54 73 -124 160 -30 36
-66 77 -81 93 -15 15 -25 27 -23 27 3 0 -9 15 -27 34 -18 18 -66 68 -106 109
-40 42 -117 116 -170 166 -102 94 -117 108 -177 156 -20 17 -42 35 -49 40 -33
29 -105 85 -109 85 -2 0 -14 -21 -26 -47 -12 -27 -26 -55 -31 -63 -16 -25
-134 -280 -204 -440 -21 -47 -46 -103 -56 -125 -9 -22 -28 -65 -40 -95 -12
-30 -31 -74 -41 -97 -11 -24 -19 -45 -19 -48 0 -3 -9 -27 -21 -53 -25 -57 -29
-65 -68 -167 -17 -44 -36 -93 -42 -110 -7 -16 -13 -34 -14 -40 -2 -5 -17 -45
-34 -88 -17 -43 -31 -84 -31 -92 0 -8 -5 -15 -10 -15 -6 0 -9 -3 -8 -7 1 -5
-9 -39 -22 -78 -13 -38 -24 -72 -25 -75 0 -3 -3 -9 -6 -15 -6 -9 -29 -75 -36
-100 -9 -36 -97 -291 -102 -297 -21 -25 -18 945 4 1212 2 25 6 90 10 145 4 55
8 118 11 140 2 22 6 63 9 90 7 69 25 232 30 275 3 19 7 55 10 80 6 49 14 111
20 150 2 14 7 45 10 70 14 99 26 178 32 205 2 11 6 34 8 50 6 45 16 100 20
104 5 4 -21 31 -29 31 -3 0 -39 15 -78 33 -40 19 -102 47 -138 62 -36 16 -81
39 -100 52 -19 13 -38 23 -42 23 -23 0 -128 109 -152 158 -53 109 -84 165
-133 237 -61 91 -153 207 -168 211 -5 2 -25 -16 -42 -40z m150 -3539 c47 -45
134 -128 194 -184 280 -264 403 -383 403 -393 0 -5 -6 -15 -14 -22 -102 -95
-282 -265 -370 -350 l-111 -108 72 -67 c329 -311 423 -403 423 -411 0 -6 -209
-212 -214 -212 -2 0 -65 -60 -142 -134 l-139 -135 95 -91 c52 -50 145 -137
205 -194 61 -57 131 -124 157 -149 l46 -45 -125 -118 c-68 -66 -153 -146 -187
-179 -35 -33 -132 -125 -216 -205 -84 -80 -159 -151 -166 -158 -8 -8 -18 -12
-23 -10 -8 3 -189 173 -415 391 -39 37 -119 114 -178 169 -60 56 -108 105
-108 109 0 6 78 84 206 205 28 27 105 100 171 162 l119 114 -75 71 c-41 40
-93 90 -116 112 -23 22 -101 96 -173 165 -73 68 -132 128 -132 132 0 8 92 97
374 363 64 60 116 113 116 116 0 8 -44 50 -359 349 -72 68 -131 127 -131 131
0 6 82 88 206 205 28 27 118 113 200 190 302 287 298 283 310 273 7 -5 50 -47
97 -92z m-2293 -2672 c148 -26 324 -102 469 -202 94 -66 324 -286 431 -413 30
-36 65 -75 78 -88 12 -13 22 -25 22 -27 0 -3 8 -13 18 -24 9 -10 31 -35 47
-55 80 -98 104 -125 155 -176 88 -88 225 -146 370 -157 41 -3 76 -6 78 -8 2
-2 6 -172 8 -379 l5 -375 -88 4 c-91 5 -158 12 -203 20 -67 13 -96 18 -112 19
-10 0 -18 3 -18 6 0 3 -9 6 -19 7 -29 2 -202 62 -228 79 -13 8 -23 12 -23 10
0 -6 -116 55 -173 91 -23 14 -44 27 -47 27 -3 0 -12 6 -20 13 -8 6 -51 41 -95
76 -94 76 -172 152 -235 228 -25 29 -47 56 -50 59 -5 5 -80 109 -128 177 -12
18 -22 35 -22 39 0 3 -8 18 -19 32 -30 44 -91 162 -83 162 4 0 2 4 -3 8 -22
15 -104 208 -157 367 -55 166 -104 350 -115 435 -2 19 -6 41 -8 48 -4 10 10
12 63 8 37 -3 83 -8 102 -11z m4534 -7 c-3 -13 -7 -35 -9 -49 -6 -40 -45 -209
-62 -264 -41 -137 -60 -191 -111 -320 -30 -77 -59 -143 -64 -146 -6 -3 -8 -8
-7 -10 4 -6 -74 -162 -88 -177 -7 -7 -16 -24 -19 -38 -3 -13 -10 -24 -14 -24
-4 0 -13 -13 -20 -30 -7 -16 -16 -30 -21 -30 -5 0 -9 -5 -9 -10 0 -9 -35 -65
-50 -80 -3 -3 -24 -30 -46 -60 -93 -125 -291 -318 -373 -364 -9 -5 -18 -12
-21 -16 -16 -21 -276 -160 -300 -160 -6 0 -18 -4 -28 -10 -20 -11 -97 -37
-169 -56 -51 -13 -74 -18 -138 -28 -16 -2 -48 -7 -70 -11 -55 -8 -216 -16
-225 -10 -4 3 -4 23 0 45 4 22 5 42 1 44 -5 3 -6 71 -1 71 1 0 3 132 4 293 2
161 6 295 9 298 3 3 36 7 74 10 113 6 169 21 260 70 62 32 137 101 210 190 32
40 130 157 212 254 74 87 286 301 347 350 31 25 61 50 67 55 85 73 314 183
417 200 14 3 49 10 79 17 30 7 81 14 112 16 56 3 58 2 53 -20z"/>
<path d="M4742 5629 c-15 -6 -17 -24 -15 -155 0 -82 2 -152 2 -156 2 -13 331
-8 332 5 0 7 1 78 2 160 2 141 1 147 -18 148 -106 4 -290 3 -303 -2z"/>
<path d="M4800 4670 l-75 -5 1 -135 c1 -74 2 -145 3 -157 1 -23 1 -23 167 -20
l166 2 2 158 1 157 -35 1 c-19 0 -62 1 -95 2 -33 1 -94 0 -135 -3z"/>
<path d="M4760 3710 l-35 -5 0 -157 0 -156 155 0 c85 0 162 2 170 4 13 3 15
29 15 159 0 96 -4 155 -10 155 -88 4 -268 4 -295 0z"/>
</g>
</svg>
